<?xml version="1.0" encoding="UTF-8" standalone="no"?>
<!-- Created with Inkscape (http://www.inkscape.org/) -->

<svg
   xmlns:dc="http://purl.org/dc/elements/1.1/"
   xmlns:cc="http://creativecommons.org/ns#"
   xmlns:rdf="http://www.w3.org/1999/02/22-rdf-syntax-ns#"
   xmlns:svg="http://www.w3.org/2000/svg"
   xmlns="http://www.w3.org/2000/svg"
   xmlns:sodipodi="http://sodipodi.sourceforge.net/DTD/sodipodi-0.dtd"
   xmlns:inkscape="http://www.inkscape.org/namespaces/inkscape"
   width="100mm"
   height="100mm"
   viewBox="0 0 100 100"
   version="1.1"
   id="svg8"
   inkscape:version="0.92.4 (5da689c313, 2019-01-14)"
   sodipodi:docname="egg.svg">
  <defs
     id="defs2" />
  <sodipodi:namedview
     id="base"
     pagecolor="#ffffff"
     bordercolor="#666666"
     borderopacity="1.0"
     inkscape:pageopacity="0.0"
     inkscape:pageshadow="2"
     inkscape:zoom="0.7"
     inkscape:cx="762.34828"
     inkscape:cy="-165.21086"
     inkscape:document-units="mm"
     inkscape:current-layer="layer1-3"
     showgrid="false"
     inkscape:window-width="2135"
     inkscape:window-height="1378"
     inkscape:window-x="1212"
     inkscape:window-y="297"
     inkscape:window-maximized="0" />
  <metadata
     id="metadata5">
    <rdf:RDF>
      <cc:Work
         rdf:about="">
        <dc:format>image/svg+xml</dc:format>
        <dc:type
           rdf:resource="http://purl.org/dc/dcmitype/StillImage" />
        <dc:title></dc:title>
      </cc:Work>
    </rdf:RDF>
  </metadata>
  <g
     inkscape:label="Layer 1"
     inkscape:groupmode="layer"
     id="layer1"
     transform="translate(0,-197)">
    <g
       transform="translate(-33.673496,-324.83862)"
       id="layer1-3"
       inkscape:label="Layer 1">
      <path
         inkscape:connector-curvature="0"
         id="path33-3"
         d="m 165.37589,746.24855 c -3.63191,-0.4092 -5.98943,-2.0849 -5.5592,-3.9514 0.0993,-0.4309 0.3092,-0.5912 0.3092,-0.2362 0,1.6854 1.78503,2.7943 4.91966,3.0561 1.69521,0.1416 22.76861,-0.7202 27.47446,-1.1236 0.65628,-0.056 1.29285,-0.1031 1.41462,-0.1041 0.88296,-0.01 -0.23386,-2.3486 -1.60909,-3.3735 -2.73053,-2.035 -4.33313,-2.2444 -14.99483,-1.9595 -0.441,0.013 -1.69312,-0.4901 -2.14959,-0.8616 -0.50101,-0.4078 -0.48018,-0.6221 0.11121,-1.1456 0.96151,-0.851 2.65932,-4.0344 3.11522,-5.8409 1.29907,-5.1478 -2.62117,-8.7443 -11.38714,-10.4471 -2.72483,-0.5292 -2.65038,-0.7282 0.24003,-0.6413 11.69526,0.3512 17.51394,6.6145 13.96487,15.0319 -0.4637,1.0997 -0.7057,0.962 1.92568,1.0955 5.04961,0.2562 7.19978,0.8558 9.82441,2.7394 0.75227,0.5399 1.81509,1.7029 1.99643,2.1846 0.0984,0.2614 -0.25768,0.2604 5.7981,0.016 1.37639,-0.056 4.30817,-0.1675 6.51506,-0.2488 5.77816,-0.2127 6.8706,-0.2604 7.34847,-0.3207 l 0.42632,-0.054 -0.0867,-0.5336 c -0.2761,-1.6983 -2.38044,-3.2495 -5.26619,-3.882 -1.81709,-0.3982 -9.53866,-0.2883 -10.6037,0.151 -2.0079,0.8281 -2.80551,-0.9917 -1.35383,-3.089 3.82997,-5.5333 4.56781,-11.4745 1.7786,-14.3216 l -0.28058,-0.2864 -0.086,0.6656 c -0.95977,7.4268 -3.77938,12.8533 -8.85245,17.0368 -0.89194,0.7355 -0.8549,0.677 0.26043,-0.4117 7.43573,-7.2582 8.84835,-19.1476 3.60274,-30.3229 -0.448,-0.9545 -0.71632,-1.4828 -1.59488,-3.1404 -0.11999,-0.2265 -0.58753,-1.0374 -1.03886,-1.8019 -0.45131,-0.7646 -1.24376,-2.2444 -1.76097,-3.2886 -1.08891,-2.1984 -1.94182,-3.6948 -3.05504,-5.3598 -1.80887,-2.7055 -2.03307,-3.2624 -1.62969,-4.0482 0.51078,-0.995 1.54365,-0.9904 5.96395,0.026 2.19244,0.5043 3.86745,0.7809 5.34041,0.8819 l 1.0392,0.071 -0.231,-0.6539 c -0.12698,-0.3596 -0.33231,-0.9397 -0.45617,-1.289 l -0.22516,-0.6351 -0.7728,-0.069 c -1.93199,-0.1721 -3.97234,-0.7333 -6.06087,-1.6669 -1.2777,-0.5712 -1.58378,-0.7903 -0.47359,-0.3391 6.15913,2.5034 10.74177,1.5781 11.42957,-2.3078 0.16815,-0.9499 0.13371,-1.0095 -0.70715,-1.2253 -2.98238,-0.7651 -1.53673,-2.9549 1.9508,-2.9549 3.91951,0 4.74322,2.2852 1.13673,3.1536 -0.26143,0.063 -0.13411,2.0194 0.16456,2.5303 0.43905,0.7507 1.45211,0.7257 2.98771,-0.074 l 0.69102,-0.3598 -0.7233,0.5485 c -0.39781,0.3017 -0.95219,0.6378 -1.23198,0.7469 -0.39215,0.1529 -0.50906,0.2574 -0.51029,0.4558 -0.001,0.2328 -0.58376,2.5382 -1.06359,4.2107 -0.24053,0.8384 -0.0478,0.7396 -2.5075,1.2875 -2.71982,0.6058 -2.66743,0.6207 -3.23117,-0.9136 l -0.11258,-0.3062 -2.01464,0.029 c -1.81079,0.026 -6.57905,-0.3088 -7.87619,-0.5535 -0.34369,-0.065 -0.26769,0.099 0.18008,0.3885 0.32707,0.2113 2.05793,2.0769 3.27343,3.5282 1.12223,1.34 1.08689,1.314 2.38059,1.7468 0.61112,0.2044 1.46503,0.5297 1.8976,0.7229 1.68963,0.7547 4.94286,1.4501 8.21574,1.7562 6.31448,0.5904 9.78244,2.8003 9.41538,5.9997 -0.29695,2.5881 -2.96158,4.0101 -6.23214,3.3259 -1.22527,-0.2564 -3.3456,-0.826 -3.54047,-0.9512 -0.50851,-0.3268 -5.62002,-1.3578 -5.84075,-1.1781 -0.031,0.025 0.11835,0.6393 0.33174,1.3648 1.12099,3.8113 1.5321,6.6763 1.54864,10.7918 l 0.008,2.1622 0.54379,0.4634 c 3.37706,2.8775 3.96917,7.5007 1.79205,13.9926 -0.40757,1.2154 -0.62374,1.1014 2.22453,1.1726 3.3936,0.085 6.66503,0.4703 6.58432,0.7758 -0.0166,0.063 0.0488,0.089 0.14534,0.059 0.82441,-0.2575 4.27705,2.0004 5.00921,3.2759 0.62883,1.0955 0.74175,3.5451 0.2021,4.3834 l -0.16914,0.2627 -5.6781,0.034 c -3.12295,0.019 -7.62788,0.063 -10.01093,0.098 l -4.33282,0.063 -0.003,1.0435 c -0.003,1.1297 -0.16681,2.2742 -0.38092,2.6567 l -0.13439,0.24 h -4.83299 c -2.65814,0 -9.13104,0.032 -14.3842,0.072 -5.98329,0.045 -9.88202,0.035 -10.43676,-0.028 z m 12.66341,-23.1854 c 0.0502,-0.071 0.0429,-0.093 -0.0159,-0.05 -0.0588,0.043 -0.30984,-0.072 -0.55794,-0.2574 l -0.45109,-0.3365 0.43596,0.3861 c 0.49711,0.4403 0.46848,0.4278 0.58891,0.2574 z m -1.72065,-1.2454 c 0,-0.019 -0.12808,-0.1237 -0.28463,-0.2316 l -0.28465,-0.1962 0.24101,0.2317 c 0.22646,0.2177 0.32827,0.2785 0.32827,0.1961 z m 32.90442,-17.529 c 1.8231,-0.7464 1.94988,-3.2173 0.23483,-4.5769 -1.24812,-0.9895 -2.87343,-1.4584 -5.87719,-1.6954 -3.27365,-0.2584 -7.11471,-0.8933 -8.69302,-1.4369 -0.19659,-0.068 -0.19208,-0.014 0.0479,0.5637 0.14569,0.3511 0.6757,1.7339 1.17777,3.0728 l 0.91285,2.4345 1.18996,0.073 c 1.97476,0.1208 3.16284,0.3316 6.25018,1.1089 2.4805,0.6245 3.99204,0.7696 4.75683,0.4565 z m -18.1032,-8.7248 c 0,-0.018 -0.15655,-0.1459 -0.3479,-0.2832 l -0.34788,-0.2496 0.30668,0.2832 c 0.28665,0.2646 0.3891,0.3303 0.3891,0.2496 z m 10.50899,-7.0343 0.57823,-0.058 0.87657,-2.1148 c 0.48212,-1.1632 0.89554,-2.1545 0.91873,-2.2029 0.0232,-0.048 -0.16556,-0.088 -0.41946,-0.088 -0.54952,0 -0.87647,-0.1245 -1.41472,-0.539 l -0.40042,-0.3082 -0.31353,0.4042 c -0.40089,0.5169 -1.41262,1.2578 -2.15561,1.5786 -0.45189,0.1951 -0.56626,0.2955 -0.52177,0.4581 0.0313,0.1145 0.17321,0.7873 0.31521,1.4952 0.142,0.7079 0.28596,1.3509 0.31988,1.4288 0.0618,0.1423 0.34405,0.1355 2.21689,-0.054 z m -53.5843,53.6871 c -0.96237,-0.2792 -2.097,-1.1419 -3.01617,-2.2932 -1.00829,-1.2631 -0.8944,-1.2169 -1.21821,-0.4941 -0.47713,1.0651 -0.86706,1.2589 -1.66109,0.8259 -1.00051,-0.5456 -1.75814,-1.982 -1.75814,-3.3333 v -0.7661 l -0.41248,0.063 c -1.2531,0.1914 -1.86465,-0.9594 -1.86465,-3.5088 0,-1.8684 0.45594,-3.0123 1.75684,-4.4079 0.623,-0.6683 0.64757,-0.7175 0.44824,-0.8968 -1.09167,-0.9818 1.08225,-3.2288 3.9408,-4.0733 1.63502,-0.483 4.55648,-0.5247 6.32991,-0.09 1.08917,0.2668 0.93975,-0.03 -0.76464,-1.5171 -8.68201,-7.5767 -13.02395,-17.3236 -13.93023,-31.2708 -0.0883,-1.3605 0.21021,-1.7476 0.37535,-0.4865 0.85023,6.4929 2.01708,10.7069 4.28171,15.4631 2.68488,5.6389 7.18392,10.7535 11.61734,13.2067 l 0.58243,0.3223 0.60928,-1.2559 c 0.33509,-0.6907 0.74236,-1.4752 0.90507,-1.7432 l 0.29579,-0.4874 -0.41219,-0.1367 c -0.22671,-0.075 -0.95698,-0.3159 -1.62283,-0.5349 l -1.21064,-0.3983 -0.31725,-0.7281 c -0.25779,-0.5916 -0.29638,-0.8053 -0.2059,-1.14 0.0879,-0.3251 0.69497,-2.9805 1.07537,-4.704 0.20797,-0.9422 3.26689,-1.3897 4.18287,-0.612 0.5213,0.4426 1.92507,1.3929 2.29696,1.5549 0.21156,0.092 0.43518,-0.1148 1.91646,-1.774 3.04567,-3.4113 4.15846,-4.4647 7.26887,-6.8805 1.1341,-0.8808 2.08266,-2.0753 2.7255,-3.432 l 0.39364,-0.8308 -0.551,-0.3941 c -0.73831,-0.528 -1.79395,-1.1139 -2.61883,-1.4535 -0.67483,-0.2778 -0.67578,-0.2789 -0.44277,-0.5033 l 0.23349,-0.225 -0.28196,0.1942 c -0.79245,0.5457 -2.41733,-0.588 -2.8636,-1.9979 -0.12754,-0.403 -0.21204,-0.7472 -0.18775,-0.7649 0.31654,-0.2302 7.33608,-2.1833 7.69777,-2.1419 0.47174,0.054 0.92351,0.3043 0.81275,0.4501 -0.0367,0.048 0.01,0.064 0.10188,0.035 0.0928,-0.029 0.36306,0.1106 0.60067,0.3101 0.77981,0.6548 1.16547,0.042 1.3452,-2.1392 0.0937,-1.1366 0.0517,-1.1837 -0.7933,-0.8887 -4.33975,1.5153 -11.60864,3.0977 -16.8051,3.6586 -8.51205,0.9187 -17.61439,-0.6886 -20.46816,-3.6143 l -0.50218,-0.5148 0.0839,1.1326 c 0.0461,0.6229 0.11642,1.4086 0.1562,1.746 0.0625,0.5306 0.0472,0.5965 -0.11286,0.4883 -0.22967,-0.1551 -0.3992,-4.5688 -0.18865,-4.9114 0.388,-0.6313 1.56406,-1.2168 3.52135,-1.7533 1.48764,-0.4077 1.77825,-0.4174 0.54136,-0.018 -3.01174,0.9726 -4.02623,2.0103 -2.81864,2.8833 0.49601,0.3585 2.23411,1.1664 2.32917,1.0826 0.0203,-0.018 0.36421,-0.542 0.76451,-1.1649 0.40029,-0.623 0.8632,-1.3072 1.02865,-1.5206 0.2912,-0.3755 0.30267,-0.4698 0.35723,-2.9345 0.031,-1.4006 0.1141,-2.8013 0.18471,-3.1128 0.0705,-0.3114 0.15922,-0.7516 0.19695,-0.9781 1.30915,-7.8575 7.3377,-8.8392 15.32138,-2.4951 l 1.78651,1.4196 0.41805,-0.3875 c 3.60241,-3.3394 8.54508,-2.6181 12.84783,1.8749 l 0.59162,0.6177 -0.082,-0.6644 c -0.68867,-5.58 0.0966,-9.7124 2.33042,-12.2659 l 0.27864,-0.3185 -0.26967,-0.2742 c -0.86948,-0.8839 -5.72866,-9.6255 -5.51037,-9.913 0.0381,-0.05 0.0185,-0.091 -0.0436,-0.091 -0.45831,0 -3.53508,-8.1638 -4.58674,-12.1704 -2.50949,-9.5604 -0.44025,-16.4444 5.57027,-18.5313 4.37233,-1.5181 9.65033,2.8266 11.00505,9.0591 0.44019,2.0251 0.53445,3.1598 0.57467,6.9187 0.0572,5.3437 0.26579,8.4336 0.76721,11.3652 0.10545,0.6161 0.1624,1.1822 0.12671,1.258 -0.0357,0.076 -0.0172,0.1618 0.0413,0.1912 0.0584,0.029 0.14538,0.3204 0.19326,0.6468 0.13152,0.8964 0.91794,4.1297 1.36703,5.6205 l 0.39774,1.3203 0.44881,-0.063 c 1.21963,-0.17 1.11582,-0.087 1.20589,-0.9628 2.06122,-20.0394 8.76342,-29.2464 19.76119,-27.1463 9.89246,1.8889 15.07367,7.9666 12.2394,14.3572 -0.55512,1.2517 -2.36313,3.1941 -2.97306,3.1941 -0.0658,0 0.106,-0.166 0.38197,-0.3689 1.56648,-1.1519 2.71844,-3.9051 2.48589,-5.9415 -0.0509,-0.4464 -0.0354,-0.6824 0.0424,-0.6433 0.0676,0.034 0.0402,-0.067 -0.0608,-0.2247 -0.10092,-0.1576 -0.18399,-0.3634 -0.18441,-0.4574 -0.011,-2.5452 -4.08217,-6.101 -8.57366,-7.4895 -6.31763,-1.9529 -10.28163,-1.1232 -13.51203,2.8283 -3.38422,4.1397 -5.86849,13.3985 -5.87234,21.8859 l -5.3e-4,1.3003 0.3479,0.1042 c 0.19134,0.057 0.7861,0.2417 1.32171,0.4096 0.63984,0.2007 0.99347,0.2663 1.03114,0.1914 0.0316,-0.063 0.43813,-0.8785 0.90353,-1.8129 4.67032,-9.3764 8.07201,-13.8242 11.03773,-14.432 0.67464,-0.1383 0.71242,-8e-4 -0.44974,-1.6359 -2.81087,-3.9548 -4.42444,-5.0318 -5.99113,-3.9988 -1.05684,0.6968 -1.01144,-1.1497 0.0502,-2.0426 2.14522,-1.804 4.52298,-0.05 8.36141,6.1677 3.64066,5.8974 5.34271,7.4346 7.39325,6.677 0.65773,-0.2429 0.59814,-0.043 -0.1454,0.4886 -1.76101,1.2585 -4.41338,-0.2181 -7.44747,-4.146 -1.15042,-1.4894 -0.98389,-1.381 -1.67308,-1.0887 -2.63,1.1152 -7.37538,10.3348 -8.72184,16.9451 l -0.0839,0.4119 0.92292,0.5058 c 5.22005,2.861 9.78772,7.3004 13.64945,13.2661 1.40571,2.1716 1.35206,1.9647 0.88584,3.4158 -0.98123,3.054 -2.73406,4.9975 -6.13508,6.8023 -1.73808,0.9224 -2.30135,1.1318 -0.97563,0.3626 3.44085,-1.9961 5.1142,-4.2136 5.28473,-7.0032 l 0.0661,-1.0811 -0.8758,-1.287 c -5.87133,-8.6284 -13.58704,-13.9884 -21.28694,-14.7879 -0.38267,-0.04 -1.13862,-0.2037 -1.67985,-0.3645 -1.26644,-0.3761 -1.1838,-0.4021 -1.28132,0.4035 -0.24046,1.986 -1.47411,1.418 -3.10961,-1.4318 -0.80922,-1.41 -2.3806,-11.655 -1.74099,-11.3506 0.087,0.042 0.0654,-0.014 -0.0479,-0.1226 -0.16535,-0.1589 -0.21898,-0.5327 -0.27209,-1.8968 l -0.0661,-1.6989 0.33537,-0.3085 0.33536,-0.3085 -0.36549,0.257 -0.3655,0.257 0.0808,-2.8829 c 0.0444,-1.5857 0.13773,-3.7569 0.20748,-4.8249 0.48696,-7.4583 -1.80043,-12.4831 -6.72358,-14.7699 l -0.71455,-0.3319 -0.82718,0.3509 c -4.65468,1.9747 -6.57925,6.2518 -5.7044,12.6772 0.10792,0.7928 0.21493,1.6346 0.23773,1.8705 0.0228,0.236 0.0713,0.4684 0.10765,0.5163 0.0363,0.048 0.2159,0.6657 0.39892,1.3728 1.67419,6.4691 5.83949,14.9183 10.46294,21.2238 0.6372,0.8689 1.01285,1.5344 1.36581,2.4196 1.0592,2.6562 0.99419,3.4941 -0.23104,2.9785 -0.47599,-0.2004 -0.60022,-0.088 -1.5205,1.3697 -1.78543,2.8291 -2.27336,6.6361 -1.64461,12.8322 0.2636,2.5975 0.22367,5.6465 -0.0778,5.9334 -0.13915,0.1325 -0.1619,0.1839 -0.0506,0.1143 0.4401,-0.2756 -0.0985,1.4405 -0.75723,2.4127 l -0.36055,0.5322 0.63147,0.4975 c 4.4251,3.4865 6.77185,7.3178 6.86383,11.2058 0.038,1.6032 0.0328,1.6543 -0.0616,0.6083 -0.25087,-2.7814 -1.30283,-5.0594 -3.39525,-7.3525 -2.12288,-2.3264 -5.85272,-4.9597 -6.57768,-4.6439 -0.37349,0.1626 -0.46072,0.1403 -0.2612,-0.066 0.15665,-0.1626 0.15237,-0.1667 -0.0438,-0.042 -0.11958,0.076 -0.20494,0.186 -0.18975,0.244 0.0151,0.058 -0.12315,0.181 -0.30733,0.2733 -0.3244,0.1625 -2.13507,1.143 -2.25411,1.2206 -0.0323,0.021 0.31488,0.3257 0.77171,0.6769 2.79673,2.1499 4.80418,5.05 6.00028,8.6686 0.33665,1.0185 0.36392,1.0454 1.72408,1.7041 1.57874,0.7645 4.29708,1.4547 6.87005,1.7444 3.77127,0.4246 5.85899,1.3705 7.27639,3.2967 1.48295,2.0153 1.19767,4.7991 -0.64554,6.2993 -1.58899,1.2933 -3.24827,1.1313 -7.89591,-0.771 -1.9765,-0.809 -2.62777,-0.9741 -4.36446,-1.1061 -0.73056,-0.056 -1.9098,-0.2181 -2.6205,-0.3613 -1.16128,-0.2339 -1.32789,-0.2454 -1.64457,-0.1133 -3.97595,1.6589 -11.01587,1.6267 -17.10259,-0.078 -0.72405,-0.2028 -1.35937,-0.3687 -1.41184,-0.3687 -0.0524,0 -0.35346,0.3591 -0.66886,0.798 l -0.57349,0.7979 0.2775,0.1935 c 0.73142,0.5099 4.53615,1.8708 7.08789,2.5353 6.87185,1.7894 13.84555,1.0688 17.60569,-1.8191 0.82805,-0.636 0.96335,-0.65 0.18933,-0.02 -4.66569,3.8 -11.52339,4.6624 -20.67691,2.6003 -1.90576,-0.4294 -1.5948,-0.5476 -2.69094,1.0226 -6.3421,9.085 -5.24395,18.4835 2.6841,22.9717 1.06485,0.6028 1.32098,0.795 0.63564,0.477 -5.52572,-2.5641 -8.56354,-7.1094 -8.59431,-12.859 -0.0123,-2.3851 0.10285,-2.1696 -1.30124,-2.4262 -2.15395,-0.3937 -4.95043,-0.089 -4.14973,0.4514 0.61036,0.4123 -0.007,1.3556 -1.36895,2.0959 -1.98719,1.0791 -3.01649,2.2758 -3.22419,3.7486 -0.12328,0.8739 -0.10697,0.906 0.29386,0.5798 0.40305,-0.328 0.98788,-0.3254 1.39539,0.01 0.38179,0.3108 0.39804,0.7186 0.10587,2.6603 -0.21759,1.4464 -0.17758,2.5619 0.10779,3.0052 l 0.1722,0.2675 0.36631,-0.6238 c 0.80842,-1.3767 1.24719,-1.3119 2.27818,0.3365 1.17052,1.8715 2.27224,2.9397 3.30208,3.2019 0.25271,0.064 0.27393,0.013 0.42688,-1.0413 0.27522,-1.8961 0.27279,-1.8952 1.75337,-0.6517 1.41132,1.1854 2.15806,1.4943 3.59743,1.4881 1.23996,0 1.23036,0.01 1.09431,-1.1662 -0.15028,-1.2939 -0.0815,-1.2752 0.19845,0.054 0.25763,1.2233 0.27392,1.1874 -0.63154,1.3921 -1.2156,0.2748 -2.90714,-0.1644 -4.31944,-1.1215 l -0.77726,-0.5267 -0.0577,0.3206 c -0.0318,0.1764 -0.0704,0.6713 -0.0859,1.0999 -0.0378,1.0549 -0.45873,1.2788 -1.71754,0.9136 z m 40.68783,-27.8541 c 0.15736,-0.1633 0.15289,-0.1669 -0.0479,-0.039 -0.12164,0.078 -0.22139,0.1588 -0.22139,0.1802 0,0.085 0.10395,0.03 0.26915,-0.1413 z m -0.11588,-0.7622 c 0.8761,-0.3651 1.51978,-2.0333 1.24788,-3.234 -0.49097,-2.1683 -2.414,-3.32 -6.1785,-3.7005 -6.88951,-0.6964 -10.78624,-2.3472 -11.35392,-4.8101 -0.21466,-0.9313 0.0607,-0.9768 1.66106,-0.2747 0.6601,0.2896 1.22283,0.5082 1.2505,0.4857 0.32483,-0.2644 -2.39721,-4.1766 -3.8478,-5.5302 l -0.37283,-0.3479 -0.0799,0.3993 c -0.37187,1.8591 -1.47973,3.5911 -3.3252,5.1988 -1.74934,1.5239 -4.85825,5.3 -6.36899,7.7358 l -0.3678,0.593 1.10736,0.4165 c 2.82693,1.063 5.23115,1.4903 8.2579,1.4677 2.38592,-0.018 3.99483,-0.2184 3.38849,-0.4225 -2.12287,-0.7144 -3.78696,-1.5787 -5.14264,-2.6708 -0.53116,-0.4278 -0.65263,-0.5484 -0.26995,-0.268 2.62158,1.9214 5.98157,2.9645 9.93072,3.0828 2.04575,0.061 2.92568,0.2243 5.18675,0.9611 3.15337,1.0274 4.4661,1.2558 5.27687,0.918 z m -16.58301,-24.1551 c 0.15734,-0.1633 0.15289,-0.1669 -0.0477,-0.039 -0.12178,0.078 -0.22139,0.1588 -0.22139,0.1802 0,0.085 0.1038,0.03 0.26915,-0.1413 z m -16.80905,-1.3078 c 1.49469,-0.1633 3.25855,-0.4354 3.36048,-0.5184 0.0938,-0.076 -0.99388,-2.2125 -1.73103,-3.3992 -4.62375,-7.4438 -10.0239,-6.8354 -16.71053,1.883 -0.22969,0.2995 -0.39605,0.561 -0.3697,0.5812 0.35102,0.2693 3.52465,1.088 5.20921,1.3438 2.53884,0.3856 7.25443,0.4361 10.24157,0.1097 z m 7.24171,-1.2316 c 3.68997,-0.8489 10.37444,-2.9484 11.56258,-3.6315 0.0618,-0.035 -0.20526,-1.383 -0.32414,-1.6352 -0.0595,-0.1262 -0.0394,-0.1584 0.0661,-0.1053 0.41448,0.2085 -1.91605,-2.8891 -3.01455,-4.0067 -1.86383,-1.8963 -3.84363,-3.1222 -5.33828,-3.3054 -0.31969,-0.039 -0.70544,-0.1797 -0.92565,-0.3372 -0.23901,-0.1709 -0.29613,-0.1907 -0.15567,-0.054 0.22074,0.2151 0.21721,0.2169 -0.6886,0.3386 -2.44603,0.3288 -5.10568,2.3537 -7.16792,5.4571 l -0.50556,0.7608 0.59405,0.6292 c 1.4874,1.5755 3.18004,4.1531 3.9798,6.0606 0.10025,0.239 0.15661,0.2339 1.91783,-0.1713 z m -17.84747,-6.6039 c 3.56802,-2.895 7.36905,-3.1152 10.49869,-0.6084 0.66724,0.5345 0.73068,0.5628 0.79726,0.3556 0.1027,-0.3196 0.95713,-1.739 1.35789,-2.2557 l 0.33791,-0.4357 -0.73479,-0.6823 c -8.4859,-7.8805 -13.41268,-6.5072 -14.77271,4.1179 -0.30427,2.3771 -0.33177,2.316 0.58654,1.3022 0.4293,-0.4739 1.29745,-1.281 1.92921,-1.7936 z m 26.65578,-27.203 c 0.15734,-0.1633 0.15287,-0.1669 -0.0477,-0.039 -0.21074,0.1345 -0.27774,0.2191 -0.17363,0.2191 0.0262,0 0.12589,-0.081 0.22139,-0.1802 z m -11.34588,88.2603 c -0.2358,-0.1539 -0.23425,-0.1558 0.0391,-0.048 0.15655,0.062 0.28463,0.1338 0.28463,0.1601 0,0.079 -0.0656,0.056 -0.32372,-0.1122 z m 21.34368,-37.6277 c 0,-0.1416 0.0286,-0.1995 0.0638,-0.1288 0.0351,0.071 0.0351,0.1866 0,0.2574 -0.0351,0.071 -0.0638,0.013 -0.0638,-0.1288 z m 9.08848,-29.7268 c -1.442,-0.6 -1.82697,-3.5127 -0.65037,-4.9206 0.7251,-0.8677 1.9505,-0.8239 2.61083,0.093 1.54837,2.1504 0.11108,5.6894 -1.96046,4.8274 z m 6.75098,-0.4334 c -0.8088,-0.4014 -1.41438,-1.9194 -1.25351,-3.1422 0.2444,-1.8574 1.7766,-2.9125 2.91982,-2.0106 2.17819,1.7183 0.68945,6.322 -1.66631,5.1528 z"
         style="fill:#000000;stroke-width:0.11412963" />
    </g>
  </g>
</svg>
